<?xml version="1.0" encoding="UTF-8"?>
<svg id="Layer_2" data-name="Layer 2" xmlns="http://www.w3.org/2000/svg" viewBox="0 0 611.12 629.93">
  <defs>
    <style>
      .cls-1 {
        fill-rule: evenodd;
      }
    </style>
  </defs>
  <g id="Layer_1-2" data-name="Layer 1">
    <g>
      <path class="cls-1" d="M523.93,222.41c90.51,153.02,76.05,287.41-.23,365.24-89.81,91.63-325.21,29.78-442.84-141.89C-36.76,274.1-22.42,54.74,100.23,11.49c88.77-31.31,235.24.37,344.49,107.64-.76,8.8-4.49,10.76-8.75,11.76C348.32,47.46,235.3,21.42,166.94,44.7c-96.71,32.94-113.49,196.66-8.49,349.91,96.13,140.3,284.06,193.92,353.92,121.45,57.17-59.3,67.94-161.86,2.19-280.93-.12-5.87,3.03-10.09,9.37-12.71h0Z"/>
      <path class="cls-1" d="M348.65,176.72c77.07,0,131.23,27.54,131.23,140.74,0-113.2,54.17-140.74,131.23-140.74-77.07,0-131.23-27.54-131.23-140.74,0,113.2-54.17,140.74-131.23,140.74Z"/>
    </g>
  </g>
</svg>